<?xml version="1.0" standalone="no"?>
<!DOCTYPE svg PUBLIC "-//W3C//DTD SVG 20010904//EN"
 "http://www.w3.org/TR/2001/REC-SVG-20010904/DTD/svg10.dtd">
<svg version="1.0" xmlns="http://www.w3.org/2000/svg"
 width="450.000000pt" height="450.000000pt" viewBox="0 0 450.000000 450.000000"
 preserveAspectRatio="xMidYMid meet">

<g transform="translate(0.000000,450.000000) scale(0.100000,-0.100000)"
fill="#000000" stroke="none">
<path d="M456 3607 c-5 -43 -7 -147 -4 -232 3 -132 7 -158 22 -173 16 -16 18
-16 30 0 10 14 19 15 59 6 53 -11 65 -23 15 -13 -30 5 -31 5 -13 -7 16 -10
111 -13 445 -11 682 4 769 5 725 13 -22 4 79 6 225 4 146 -2 607 -6 1026 -9
688 -5 765 -4 805 10 24 9 55 19 69 22 23 6 24 5 10 -13 -13 -17 -13 -17 9 1
21 18 57 75 47 75 -2 0 -27 -15 -55 -34 -40 -27 -65 -36 -118 -42 -62 -6 -590
1 -828 12 -55 2 -271 7 -480 9 -489 6 -565 9 -565 17 0 3 -21 6 -46 6 -25 0
-65 6 -89 13 -36 11 -45 19 -55 49 -10 30 -9 45 4 85 19 54 16 68 -4 29 -8
-14 -34 -37 -58 -51 -35 -21 -52 -25 -96 -21 -98 8 -163 84 -153 181 2 28 1
43 -4 35 -5 -7 -9 -21 -9 -31 0 -10 -4 -16 -9 -13 -5 3 -12 -11 -16 -32 -15
-85 -81 -142 -165 -142 -116 0 -200 119 -157 223 23 54 10 45 -15 -10 -18 -41
-22 -45 -29 -28 -5 14 -8 7 -8 -26 -2 -87 -75 -159 -163 -159 -60 0 -98 19
-135 67 -24 31 -28 46 -28 98 0 52 4 67 29 101 26 34 26 36 5 18 -13 -12 -42
-29 -64 -39 -22 -9 -52 -23 -67 -31 -40 -21 -48 -17 -49 24 0 20 -4 46 -9 57
-6 14 -9 -7 -11 -65 l-3 -85 -5 95 -6 95 -9 -78z"/>
<path d="M1460 2696 c0 -16 26 -39 37 -34 4 1 -2 13 -14 25 -15 14 -23 18 -23
9z"/>
<path d="M2398 2694 c-10 -10 -41 -18 -82 -21 -90 -8 -94 -23 -7 -23 58 0 75
4 91 20 11 11 20 25 20 30 0 14 -3 13 -22 -6z"/>
<path d="M2910 2552 c0 -20 56 -72 77 -72 12 0 8 5 -12 15 -17 9 -38 28 -48
43 -9 15 -17 21 -17 14z"/>
<path d="M3140 2550 c0 -19 57 -70 77 -69 16 0 15 1 -3 9 -11 4 -33 22 -47 40
-15 17 -27 26 -27 20z"/>
<path d="M2680 2541 c0 -16 51 -59 75 -63 13 -3 22 -1 19 3 -3 5 -12 9 -20 9
-9 0 -29 13 -45 29 -16 16 -29 26 -29 22z"/>
<path d="M790 2463 c-27 -10 -40 -36 -40 -85 0 -35 6 -54 20 -68 23 -23 -12
-22 530 -21 l385 1 23 26 c24 27 30 95 12 124 -5 8 -10 11 -10 7 0 -5 -10 -1
-22 7 -20 14 -79 16 -453 15 -236 0 -437 -3 -445 -6z"/>
<path d="M2468 2345 c-3 -13 -2 -22 2 -20 11 7 20 45 10 45 -4 0 -10 -11 -12
-25z"/>
<path d="M2293 2073 c3 -5 -64 -9 -148 -10 -122 -1 -160 -5 -186 -19 -29 -14
-51 -16 -165 -10 -73 4 -148 11 -166 17 -18 5 -79 9 -134 9 -87 0 -103 -2
-108 -17 -6 -14 -9 -15 -16 -3 -6 10 -10 3 -16 -25 -5 -30 -2 -48 12 -75 l19
-35 230 2 c535 5 687 11 703 26 18 19 20 110 3 131 -13 16 -36 23 -28 9z"/>
<path d="M2721 1953 c1 -26 15 -58 25 -59 5 0 24 -4 41 -8 35 -8 73 -1 73 14
0 13 -54 40 -78 40 -11 0 -25 7 -32 15 -17 20 -30 19 -29 -2z"/>
<path d="M680 1937 c0 -37 27 -42 270 -45 193 -3 243 -1 271 11 31 14 13 15
-231 16 -223 1 -269 3 -288 17 -19 13 -22 13 -22 1z"/>
<path d="M1255 1630 c308 -3 561 -6 563 -8 22 -16 62 -71 62 -84 0 -22 -18
-24 -26 -3 -3 8 -20 23 -37 34 -30 18 -61 19 -612 21 -319 1 -595 -1 -613 -6
-19 -5 -41 -22 -52 -39 -11 -16 -20 -25 -21 -20 0 6 -4 1 -9 -10 -5 -11 -9
-189 -10 -395 -1 -206 -6 -364 -10 -350 -7 22 -8 21 -9 -13 -1 -49 23 -101 57
-123 27 -17 27 -17 9 3 -22 26 -22 41 1 20 51 -47 58 -47 654 -47 350 0 576 4
598 10 44 13 99 63 109 98 5 15 5 207 2 427 l-6 400 -24 34 c-45 62 -34 61
-638 59 l-548 -3 560 -5z m103 -236 c25 -10 32 -19 32 -40 0 -34 -119 -475
-134 -493 -13 -17 -86 -10 -121 13 -14 9 -25 26 -25 38 0 38 123 480 138 495
16 15 51 11 110 -13z m-348 -24 c41 -41 26 -65 -115 -187 -73 -62 -72 -67 42
-138 102 -63 123 -82 123 -112 0 -35 -36 -66 -68 -58 -48 12 -210 114 -237
149 -48 63 -46 152 7 211 43 49 185 155 209 155 10 0 28 -9 39 -20z m617 -50
c115 -68 144 -101 151 -171 6 -66 -10 -99 -79 -164 -124 -114 -183 -139 -215
-90 -27 41 -11 69 79 141 124 100 124 105 -1 178 -43 24 -87 54 -99 65 -42 40
-21 101 36 101 15 0 71 -26 128 -60z"/>
<path d="M2725 1593 c4 -16 7 -28 8 -29 34 -21 117 -23 117 -3 0 11 -48 32
-72 31 -9 0 -22 6 -29 14 -19 23 -32 16 -24 -13z"/>
<path d="M2721 1268 c1 -32 16 -43 58 -46 48 -4 49 8 1 28 -16 7 -30 16 -30
21 0 5 -7 9 -15 9 -8 0 -15 -6 -14 -12z"/>
</g>
</svg>
