<?xml version="1.0" standalone="no"?>
<!DOCTYPE svg PUBLIC "-//W3C//DTD SVG 20010904//EN"
 "http://www.w3.org/TR/2001/REC-SVG-20010904/DTD/svg10.dtd">
<svg version="1.0" xmlns="http://www.w3.org/2000/svg"
 width="512.000000pt" height="512.000000pt" viewBox="0 0 512.000000 512.000000"
 preserveAspectRatio="xMidYMid meet">

<g transform="translate(0.000000,512.000000) scale(0.100000,-0.100000)"
fill="#000000" stroke="none">
<path d="M1180 4779 c-279 -8 -341 -19 -466 -79 -56 -27 -105 -61 -158 -111
-121 -113 -189 -226 -238 -395 l-23 -79 -3 -1528 -2 -1527 24 -25 25 -25 2211
0 c2403 0 2261 -3 2275 53 3 12 4 704 3 1537 -3 1505 -3 1515 -24 1585 -54
178 -122 294 -239 403 -85 79 -201 143 -305 166 -116 26 -2430 45 -3080 25z
m2035 -165 c479 -3 909 -9 958 -14 119 -12 199 -51 292 -145 80 -80 125 -151
163 -257 l27 -73 3 -1477 2 -1478 -2105 0 -2106 0 3 1458 c4 1635 -3 1492 80
1662 50 103 160 219 248 262 118 58 136 60 645 68 259 4 571 5 695 4 124 -2
617 -6 1095 -10z"/>
<path d="M2090 835 l0 -165 470 0 470 0 0 165 0 165 -470 0 -470 0 0 -165z"/>
</g>
</svg>
